# xmcd CD database file
#
# Track frame offsets:
#	150
#	28960
#	53325
#	88437
#	112300
#	144295
#	179072
#	200625
#	234860
#	258952
#	281475
#	305100
#
# Disc length: 4409 seconds
#
# Revision: 4
# Processed by: cddbd v1.5.2PL0 Copyright (c) Steve Scherf et al.
# Submitted via: CDex 1.81
#
DISCID=b411370c
DTITLE=The Modern Jazz Quartet - The Complete Last Concert [Disc 1]
DYEAR=1974
DGENRE=Jazz
TTITLE0=Softly As In A Morning Sunrise
TTITLE1=The Cylinder
TTITLE2=Summertime
TTITLE3=Really True Blues
TTITLE4=What's New?
TTITLE5=Blues In A Minor
TTITLE6=Confirmation
TTITLE7='round Midnight
TTITLE8=A Night In Tunisia
TTITLE9=Tears From The Children
TTITLE10=Blues In H (B)
TTITLE11=England's Carol
EXTD=YEAR: 1974
EXTT0=
EXTT1=
EXTT2=
EXTT3=
EXTT4=
EXTT5=
EXTT6=
EXTT7=
EXTT8=
EXTT9=
EXTT10=
EXTT11=
PLAYORDER=
